<?xml version="1.0" encoding="UTF-8" standalone="no"?>
<svg
   width="149.99936"
   height="46.976002"
   viewBox="0 0 149.99936 46.976004"
   version="1.1"
   id="svg2143"
   xmlns:xlink="http://www.w3.org/1999/xlink"
   xmlns="http://www.w3.org/2000/svg"
   xmlns:svg="http://www.w3.org/2000/svg"
   xmlns:rdf="http://www.w3.org/1999/02/22-rdf-syntax-ns#"
   xmlns:cc="http://creativecommons.org/ns#"
   xmlns:dc="http://purl.org/dc/elements/1.1/">
  <defs
     id="defs2137">
    <rect
       x="55.5625"
       y="129.26785"
       width="136.21361"
       height="42.597343"
       id="rect2708" />
    <rect
       x="55.5625"
       y="129.26785"
       width="123.1174"
       height="43.933693"
       id="rect2708-5" />
    <rect
       x="55.5625"
       y="129.26785"
       width="118.30655"
       height="31.372025"
       id="rect2725" />
    <rect
       x="55.5625"
       y="129.26785"
       width="136.21361"
       height="42.597343"
       id="rect2708-9" />
    <rect
       x="55.5625"
       y="129.26785"
       width="136.21361"
       height="42.597343"
       id="rect2761" />
    <rect
       x="55.5625"
       y="129.26785"
       width="123.1174"
       height="43.933693"
       id="rect2708-5-3" />
    <rect
       x="55.5625"
       y="129.26785"
       width="123.1174"
       height="43.933693"
       id="rect2764" />
    <linearGradient
       xlink:href="#linearGradient1002"
       id="linearGradient1004"
       x1="29.457537"
       y1="135.99364"
       x2="37.707413"
       y2="156.26247"
       gradientUnits="userSpaceOnUse"
       gradientTransform="matrix(1.2275626,0,0,1.2275626,-25.87477,-158.80507)" />
    <linearGradient
       id="linearGradient1002">
      <stop
         style="stop-color:#326400;stop-opacity:1"
         offset="0"
         id="stop998" />
      <stop
         style="stop-color:#329600;stop-opacity:1"
         offset="1"
         id="stop1006" />
    </linearGradient>
  </defs>
  <metadata
     id="metadata2140">
    <rdf:RDF>
      <cc:Work
         rdf:about="">
        <dc:format>image/svg+xml</dc:format>
        <dc:type
           rdf:resource="http://purl.org/dc/dcmitype/StillImage" />
      </cc:Work>
    </rdf:RDF>
  </metadata>
  <path
     id="path847-8"
     style="font-variation-settings:normal;opacity:1;vector-effect:none;fill:url(#linearGradient1004);fill-opacity:1;stroke:none;stroke-width:4.84627;stroke-linecap:butt;stroke-linejoin:miter;stroke-miterlimit:4;stroke-dasharray:none;stroke-dashoffset:0;stroke-opacity:1;stop-color:#000000;stop-opacity:1"
     d="M 20.413465,2.3125904 2,12.900201 V 34.075802 L 20.413465,44.663411 38.826932,34.075802 V 12.900201 Z m 0,5.293806 13.810097,7.9408016 V 31.428803 L 20.413466,39.369605 6.6033671,31.428803 V 15.547198 Z M 10.297059,15.547198 8.4447883,16.612352 v 2.249255 h 4.8684657 l 3.845368,3.845178 2.473627,-2.473627 -4.68577,-4.68596 h -1.059065 -1.157265 z m 15.583582,0 -2.822653,2.822652 -2.644333,2.644333 v 1.95e-4 l -2.474008,2.473627 -4.626203,4.626393 H 8.4447883 v 2.249253 l 1.8522707,1.065156 h 2.4329 1.157455 1.059255 l 1.539214,-1.539214 6.401399,-6.401588 3.343145,-3.343146 1.283439,-1.283248 h 4.868467 V 16.612357 L 30.530062,15.547201 H 28.09697 27.043995 Z m -2.212143,8.722017 -2.473817,2.473819 4.685769,4.685769 h 1.163545 1.053166 2.432901 l 1.852271,-1.065156 v -2.249253 h -4.868657 z" />
  <path
     d="m 78.727139,31.988436 q 0,1.014973 -0.359472,2.177978 -0.338325,1.162993 -1.141849,2.156828 -0.782379,0.993822 -2.0511,1.670479 -1.268723,0.655506 -3.108369,0.655506 H 51.195872 q -0.59207,0 -1.099558,-0.21146 -0.507489,-0.211447 -0.888106,-0.570915 -0.359471,-0.380618 -0.570925,-0.888104 -0.211454,-0.507499 -0.211454,-1.099565 V 11.096818 q 0,-0.570927 0.211454,-1.078413 0.211454,-0.507487 0.570925,-0.8881051 0.380617,-0.380618 0.888106,-0.592078 0.507488,-0.2114476 1.099558,-0.2114476 H 69.59234 q 1.014978,0 2.177973,0.3594671 1.162996,0.3594794 2.156828,1.1629928 1.014977,0.7823868 1.670483,2.0511098 0.676652,1.268722 0.676652,3.10836 v 1.036124 q 0,1.459032 -0.486343,3.150662 -0.486344,1.67048 -1.564757,3.171801 0.930396,0.570927 1.73392,1.374453 0.824669,0.803525 1.437885,1.860788 0.613215,1.057275 0.972686,2.389426 0.359472,1.332164 0.359472,2.939215 z m -5.497795,-1.057263 q 0,-1.078414 -0.338326,-1.924229 Q 72.552692,28.139978 71.939477,27.526761 71.326261,26.913545 70.4593,26.596367 69.59234,26.258038 68.513926,26.258038 H 56.122742 v -5.540075 h 9.917177 q 1.078413,0 1.945373,-0.31719 0.86696,-0.338329 1.480176,-0.951533 0.613216,-0.613217 0.930396,-1.459032 0.338326,-0.866966 0.338326,-1.94538 v -1.036124 q 0,-1.184131 -1.14185,-1.184131 H 53.923624 v 19.326855 h 18.142725 q 0.148017,0 0.359471,-0.02111 0.211453,-0.02111 0.380616,-0.12688 0.169163,-0.105694 0.296036,-0.359468 0.126872,-0.253737 0.126872,-0.697795 z"
     style="font-style:normal;font-weight:normal;font-size:35.2778px;line-height:1.25;font-family:Audiowide;-inkscape-font-specification:Audiowide;white-space:pre;fill:#329600;fill-opacity:1;stroke:none;stroke-width:0.324792"
     id="path868" />
  <path
     d="m 113.72272,21.013989 q 0,1.88194 -0.4652,3.36211 -0.46519,1.480183 -1.26872,2.622037 -0.78238,1.120703 -1.8185,1.924217 -1.03612,0.803525 -2.17798,1.311024 -1.1207,0.507487 -2.28369,0.740085 -1.14186,0.232599 -2.15683,0.232599 H 91.118323 V 25.708262 H 103.5518 q 1.05726,-0.08458 1.90308,-0.422907 0.86696,-0.359467 1.48018,-0.951545 0.61322,-0.592066 0.95153,-1.41673 0.33833,-0.845816 0.33833,-1.903091 v -2.495156 q -0.10569,-1.036112 -0.44405,-1.903078 -0.33832,-0.866954 -0.93039,-1.48017 -0.57093,-0.613217 -1.3956,-0.951545 -0.82467,-0.359467 -1.90308,-0.359467 H 91.160614 q -1.09956,0 -1.670485,0.570914 -0.570924,0.570927 -0.570924,1.649341 V 38.649227 H 83.42141 V 16.044828 q 0,-2.114538 0.761233,-3.594708 0.782379,-1.480183 1.924228,-2.389426 1.162995,-0.9092555 2.516298,-1.3110121 1.353305,-0.4229076 2.495154,-0.4229076 H 103.5518 q 1.86079,0 3.34097,0.4863357 1.48017,0.4652094 2.60087,1.268723 1.14186,0.782386 1.92423,1.818511 0.80353,1.036124 1.31101,2.177966 0.52864,1.120703 0.76124,2.283696 0.2326,1.141854 0.2326,2.156827 z"
     style="font-style:normal;font-weight:normal;font-size:35.2778px;line-height:1.25;font-family:Audiowide;-inkscape-font-specification:Audiowide;white-space:pre;fill:#329600;fill-opacity:1;stroke:none;stroke-width:0.324792"
     id="path870" />
  <path
     d="m 131.23109,19.153201 9.26166,-10.8264267 h 7.50661 l -13.0467,15.2035217 12.96212,15.118931 h -7.46432 l -9.21937,-10.741848 -9.1771,10.741848 h -7.48546 L 127.5095,23.530296 114.52624,8.3267743 h 7.44317 z"
     style="font-style:normal;font-weight:normal;font-size:35.2778px;line-height:1.25;font-family:Audiowide;-inkscape-font-specification:Audiowide;white-space:pre;fill:#329600;fill-opacity:1;stroke:none;stroke-width:0.324792"
     id="path872" />
</svg>
